<svg preserveAspectRatio="xMidYMid meet" viewBox="461.84319999999997 239.7824 311.168 369.408" xmlns="http://www.w3.org/2000/svg" version="1.0" style="max-height: 500px" width="311.168" height="369.408">
 <g fill="#fefefe">
  
 </g>
 <g fill="#159c83">
  <path d="M611 604.80 c-1.75 -0.65 -6.20 -3.25 -22 -12.90 -4.25 -2.60 -12.60 -7.65 -18.50 -11.25 -23.95 -14.50 -53.15 -32.25 -56.50 -34.40 -1.25 -0.80 -11.90 -7.25 -23.75 -14.40 -11.85 -7.10 -22.35 -13.75 -23.35 -14.70 -1.05 -1 -2.45 -3 -3.15 -4.50 l-1.25 -2.70 0 -85.60 c-0.05 -47.15 0.10 -86.10 0.30 -86.65 0.20 -0.50 1.05 -2 1.80 -3.30 1.60 -2.60 3.75 -4.15 15.90 -11.40 12.25 -7.35 23.15 -13.95 31.20 -18.95 8.80 -5.45 16.75 -10.30 34.55 -21.05 13.85 -8.35 24.90 -15.10 29 -17.75 1.40 -0.85 5.75 -3.50 9.75 -5.90 4 -2.40 9.95 -6.05 13.25 -8.10 11.95 -7.40 13.80 -8.25 17.70 -8.25 3.80 0.05 6.70 1.45 19.35 9.30 6.65 4.10 12.75 7.80 13.50 8.25 0.80 0.45 5.15 3.15 9.70 5.95 4.55 2.85 9.45 5.85 10.85 6.70 4.30 2.55 14 8.45 20.65 12.50 3.45 2.10 10.40 6.40 15.50 9.50 5.10 3.15 14.10 8.60 20 12.20 5.90 3.55 15.50 9.35 21.25 12.85 5.80 3.50 11.80 7.15 13.40 8.10 4.15 2.45 6.20 4.45 7.75 7.35 l1.35 2.55 0 85.75 0 85.75 -1.15 2.85 c-1.50 3.75 -3.10 5.05 -13.90 11.45 -4.85 2.85 -9.35 5.55 -10 5.95 -0.65 0.40 -6.30 3.85 -12.60 7.65 -6.25 3.80 -13.15 8 -15.35 9.40 -2.20 1.35 -7.70 4.75 -12.25 7.50 -4.55 2.75 -11.15 6.80 -14.75 9.05 -3.55 2.20 -8.65 5.30 -11.25 6.90 -2.60 1.55 -10.50 6.40 -17.50 10.75 -29.85 18.45 -36.55 22.50 -38.90 23.40 -2.55 1 -8.05 1.05 -10.60 0.15z m106.05 -68.85 c1.35 -0.60 2.45 -1.25 2.45 -1.50 0 -0.20 0.45 -0.50 0.95 -0.70 0.55 -0.15 2.60 -1.90 4.65 -3.90 2.90 -2.90 3.85 -4.25 4.60 -6.40 l0.95 -2.75 -1.15 -2.20 c-1.05 -2.10 -8.70 -9.95 -27.40 -28.15 -6.45 -6.30 -6.60 -6.50 -6.60 -8.60 0 -1.20 0.20 -2.25 0.40 -2.35 0.65 -0.25 8.10 -12.50 8.45 -13.75 0.15 -0.65 0.45 -1.15 0.70 -1.15 0.25 0 0.45 -0.40 0.45 -0.90 0 -0.50 0.30 -1.30 0.65 -1.85 2.15 -3.30 6.60 -17.65 8.05 -26 1.95 -11.30 2 -22.65 0.10 -34 -1.45 -8.70 -5.15 -20 -9.35 -28.35 -2 -4 -6.90 -12.45 -7.45 -12.90 -0.15 -0.15 -0.80 -1.10 -1.45 -2.10 -0.60 -1.05 -1.30 -1.90 -1.45 -1.90 -0.20 0 -0.90 -0.85 -1.60 -1.90 -1.75 -2.65 -10.50 -11.30 -15.55 -15.40 -6.60 -5.25 -7.20 -5.65 -10.80 -7.55 -1.90 -1 -3.50 -1.90 -3.65 -2.10 -0.15 -0.20 -1.15 -0.75 -2.25 -1.25 -1.10 -0.50 -3.10 -1.45 -4.50 -2.05 -27.30 -12.75 -57.90 -12.05 -85 1.85 -12.75 6.55 -22.30 13.90 -30.20 23.25 -4.90 5.80 -5.30 6.35 -7.45 9.40 -9.95 14.20 -16.25 31.75 -18.15 50.30 -0.65 6.85 -0.15 16.50 1.35 25.35 0.90 5.25 3.80 15.70 5.55 19.85 1.80 4.35 4.85 10.45 5.25 10.65 0.25 0.10 0.40 0.40 0.40 0.65 0 1.15 7.30 11.90 11.30 16.70 2.05 2.45 10.95 11.40 12.80 12.85 8 6.35 10.90 8.25 17.90 11.75 1.50 0.75 2.85 1.50 3 1.65 0.45 0.65 12.25 4.95 16.75 6.20 10.65 2.90 22.15 4.20 31.25 3.60 12.10 -0.75 26.35 -4.45 37.25 -9.60 2.60 -1.25 2.75 -1.35 7.25 -4.20 4.40 -2.80 8.10 -4.50 9.60 -4.50 1.05 0 2.20 0.80 4.65 3.15 1.80 1.75 3.25 3.45 3.25 3.75 0 0.35 0.20 0.60 0.50 0.60 0.50 0 2.05 1.55 16.50 16.25 11.85 12.05 12.20 12.25 17.05 10.20z" data-index="1" style="opacity: 1; visibility: visible;"></path>
  <path d="M608.75 491.20 c-4.25 -0.35 -11.30 -1.70 -15.70 -3 -5.80 -1.75 -16.30 -6.90 -19.60 -9.60 -6.65 -5.45 -8.20 -6.75 -9.10 -7.95 -0.60 -0.75 -1.65 -1.95 -2.35 -2.70 -8.80 -9.30 -15.55 -24.65 -17.55 -39.70 -0.75 -5.75 -0.35 -19.15 0.80 -24.75 2 -10.30 5.75 -19.25 11.25 -26.95 1.25 -1.75 2.50 -3.65 2.85 -4.20 0.30 -0.55 2.55 -3 4.90 -5.45 4 -4.05 6.60 -6.25 11.70 -9.95 6.85 -4.95 16.50 -8.85 25.80 -10.50 7.65 -1.30 20.80 -1.30 27.65 0 14 2.70 27.30 9.65 36.85 19.30 4.50 4.55 6.35 6.95 11.15 14.60 1.45 2.30 4.85 9.90 6.05 13.60 1.85 5.60 3.10 13.55 3.40 21.05 0.55 13.70 -1.90 26.20 -7.20 37.15 -0.90 1.85 -1.65 3.50 -1.65 3.65 0 0.10 -0.40 0.85 -0.95 1.60 -0.50 0.75 -1.75 2.65 -2.75 4.25 -6.15 9.55 -18.80 20.05 -29.55 24.50 -4.35 1.80 -9.40 3.25 -14.25 4.10 -4.25 0.80 -17 1.30 -21.75 0.95z" data-index="2" style="opacity: 1;"></path>
 </g>
 <g fill="#242a32">
  <path d="M711.70 538.50 c-2.40 -0.50 -3.85 -1.75 -13.25 -11.30 -14.35 -14.65 -15.95 -16.20 -16.45 -16.20 -0.30 0 -0.50 -0.25 -0.50 -0.60 0 -0.30 -1.45 -2 -3.20 -3.70 l-3.25 -3.15 -2.65 1.35 c-1.45 0.75 -3.90 2.15 -5.40 3.10 -4.50 2.85 -4.65 2.95 -7.25 4.20 -12.90 6.10 -26.90 9.35 -41.50 9.55 -12.25 0.20 -22.75 -1.10 -32 -4.05 -3.75 -1.20 -14.45 -5.30 -14.75 -5.70 -0.15 -0.15 -1.50 -0.90 -3 -1.65 -7 -3.50 -9.90 -5.40 -17.90 -11.75 -1.85 -1.45 -10.75 -10.40 -12.80 -12.85 -4 -4.80 -11.30 -15.55 -11.30 -16.70 0 -0.25 -0.15 -0.55 -0.40 -0.65 -0.20 -0.05 -1.20 -1.85 -2.20 -3.90 -5.55 -11.50 -8.60 -22.75 -9.85 -37 -2.05 -22.10 3.20 -44.20 15.10 -63.70 7.20 -11.80 18.70 -23.85 29.35 -30.75 2.50 -1.60 7 -4.20 10 -5.85 3.05 -1.60 5.50 -3.20 5.50 -3.55 0 -0.35 0.35 -0.65 0.75 -0.65 0.40 0 0.75 0.20 0.75 0.45 0 0.20 2.10 -0.40 4.65 -1.45 18.75 -7.50 43.60 -8.50 63.75 -2.50 2.80 0.85 6.30 2.05 7.85 2.70 1.80 0.80 2.75 1.05 2.75 0.65 0 -0.45 0.10 -0.45 0.40 -0.05 0.20 0.35 1.80 1.30 3.60 2.20 1.80 0.85 3.65 1.80 4.15 2.05 0.50 0.25 1.10 0.35 1.35 0.20 0.30 -0.20 0.50 0 0.50 0.35 0 0.40 1.65 1.55 3.65 2.55 1.95 1 4.15 2.30 4.85 2.85 10.15 8 18.90 16.20 21.50 20.10 0.70 1.05 1.40 1.90 1.60 1.90 0.15 0 0.85 0.85 1.45 1.90 0.65 1 1.30 1.95 1.45 2.10 0.55 0.45 5.45 8.90 7.45 12.90 2.40 4.80 5.20 11.90 6.30 15.85 0.45 1.65 0.95 3.35 1.15 3.75 0.15 0.40 0.30 1 0.35 1.25 0 0.30 0.30 1.50 0.60 2.75 1.05 3.80 2.10 12.40 2.40 19.50 0.45 9.05 -0.85 21.20 -3.10 29.50 -2.15 7.85 -5.15 16.55 -6.50 18.80 -0.35 0.55 -0.50 1.20 -0.30 1.40 0.25 0.20 0.05 0.65 -0.35 0.95 -0.40 0.35 -1.05 1.30 -1.40 2.10 -0.90 2 -7.70 12.95 -8.20 13.15 -1.10 0.45 0.15 2 6.20 7.95 18.15 17.65 26.35 26.05 27.35 28 2.35 4.65 0.95 9.25 -4.40 14.50 -2 2 -3.85 3.65 -4.10 3.65 -0.20 0 -0.70 0.30 -1.05 0.70 -2 1.95 -6.90 3.35 -9.70 2.80z m-82.70 -49.75 c4.80 -0.85 9.85 -2.30 14.25 -4.10 10.75 -4.45 23.40 -14.95 29.55 -24.50 1 -1.60 2.25 -3.50 2.75 -4.25 0.55 -0.75 0.95 -1.50 0.95 -1.60 0 -0.15 0.75 -1.80 1.65 -3.65 8 -16.50 9.45 -37.90 3.80 -55.20 -1.20 -3.70 -4.60 -11.30 -6.05 -13.60 -4.80 -7.65 -6.65 -10.05 -11.15 -14.60 -9.55 -9.65 -22.85 -16.60 -36.85 -19.30 -6.70 -1.30 -17.20 -1.30 -24.65 0 -7.45 1.35 -18.60 5.30 -20.20 7.25 -0.35 0.45 -0.80 0.70 -1 0.60 -0.35 -0.20 -5.05 2.85 -9.20 6.05 -2.95 2.30 -11.10 10.40 -12 12 -0.35 0.55 -1.60 2.45 -2.85 4.20 -5.50 7.70 -9.30 16.75 -11.25 26.95 -1.15 5.85 -1.50 16.25 -0.80 21.75 2 15.10 8.75 30.40 17.55 39.70 0.70 0.75 1.75 1.95 2.35 2.70 1.65 2.10 8.15 7.40 8.70 7.10 0.25 -0.20 0.45 0 0.45 0.40 0 1.45 12.60 7.95 19.55 10.05 4.40 1.30 11.45 2.65 15.70 3 4.30 0.35 14.30 -0.15 18.75 -0.95z" data-index="3" style="opacity: 1;"></path>
  <path d="M571 365 c0 -0.55 3.10 -2.60 3.40 -2.25 0.25 0.25 -2.50 2.70 -3 2.75 -0.25 0 -0.40 -0.25 -0.40 -0.50z" data-index="4"></path>
  <path d="M731.50 526.75 c0 -0.40 0.35 -0.75 0.75 -0.75 0.45 0 0.60 0.30 0.45 0.75 -0.20 0.40 -0.50 0.75 -0.75 0.75 -0.25 0 -0.45 -0.35 -0.45 -0.75z" data-index="5"></path>
  <path d="M716 440.65 c0 -0.25 0.25 -0.75 0.50 -1.15 0.40 -0.60 0.50 -0.55 0.50 0.40 0 0.60 -0.20 1.10 -0.50 1.10 -0.25 0 -0.50 -0.15 -0.50 -0.35z" data-index="6"></path>
 </g>
 <g fill="#1b9888">
  <path d="M612.75 602.10 c-1.45 -0.80 -1.50 -0.85 -0.30 -1 0.65 -0.10 1.50 0.15 1.90 0.55 1.10 1.10 0.10 1.35 -1.60 0.45z" data-index="7"></path>
  <path d="M620.15 601.85 c0.10 -0.35 0.70 -0.70 1.30 -0.75 1.40 -0.20 1 0.65 -0.45 1.05 -0.70 0.15 -1 0.05 -0.85 -0.30z" data-index="8"></path>
  <path d="M606 600 c0 -0.25 0.35 -0.50 0.75 -0.50 0.40 0 0.75 0.25 0.75 0.50 0 0.30 -0.35 0.50 -0.75 0.50 -0.40 0 -0.75 -0.20 -0.75 -0.50z" data-index="9"></path>
  <path d="M624.30 599.25 c0.15 -0.40 1.05 -1.20 2 -1.80 0.95 -0.55 1.70 -1.25 1.70 -1.50 0 -0.25 0.35 -0.45 0.80 -0.45 0.45 0 0.70 0.30 0.55 0.65 -0.10 0.30 -0.50 0.55 -0.80 0.50 -0.30 -0.10 -0.55 0.15 -0.55 0.55 0 0.75 -2.50 2.80 -3.45 2.80 -0.30 0 -0.40 -0.35 -0.25 -0.75z" data-index="10" style="opacity: 1;"></path>
  <path d="M632.90 597.15 c-0.85 -0.20 -1.65 -1.60 -1.15 -2.05 0.15 -0.15 0.75 0.25 1.30 0.85 1.15 1.20 1.10 1.45 -0.15 1.20z" data-index="11"></path>
  <path d="M601.75 596 c-0.15 -0.25 0.15 -0.50 0.75 -0.50 0.60 0 0.90 0.25 0.75 0.50 -0.15 0.30 -0.50 0.50 -0.75 0.50 -0.25 0 -0.60 -0.20 -0.75 -0.50z" data-index="12"></path>
  <path d="M632.60 594.40 c0.25 -0.75 2.75 -1.75 3.20 -1.25 0.20 0.20 0.05 0.65 -0.30 1.10 -0.75 0.90 -3.20 1.05 -2.90 0.15z" data-index="13"></path>
  <path d="M637.10 592.45 c0.25 -0.85 2.40 -1.25 2.40 -0.50 0 0.30 -0.20 0.55 -0.45 0.55 -0.25 0 -0.85 0.15 -1.35 0.35 -0.60 0.20 -0.75 0.10 -0.60 -0.40z" data-index="14"></path>
  <path d="M645.30 589.75 c-0.15 -0.45 0 -0.75 0.45 -0.75 0.80 0 1 0.80 0.30 1.20 -0.25 0.15 -0.55 -0.05 -0.75 -0.45z" data-index="15"></path>
  <path d="M641.80 589.15 c-0.75 -0.75 -0.20 -1.65 0.95 -1.65 0.70 0 1.25 0.20 1.25 0.50 0 0.60 -1.75 1.55 -2.20 1.15z" data-index="16"></path>
  <path d="M655.70 580.45 c-0.35 -0.60 0.60 -1.45 1.70 -1.45 0.30 0 0.60 -0.35 0.60 -0.75 0 -0.50 0.55 -0.80 1.50 -0.80 0.85 -0.05 1.75 -0.10 2 -0.15 0.30 -0.05 0.55 0.20 0.65 0.45 0.05 0.30 -0.70 0.55 -1.65 0.60 -1.20 0.05 -2 0.45 -2.65 1.35 -1 1.40 -1.60 1.60 -2.15 0.75z" data-index="17"></path>
  <path d="M663.25 576.50 c-0.90 -0.35 -0.95 -0.40 -0.10 -0.75 1.05 -0.45 2.50 0.05 2.10 0.75 -0.35 0.60 -0.65 0.60 -2 0z" data-index="18"></path>
  <path d="M665.65 573.95 c-0.05 -0.50 0.10 -0.95 0.40 -0.95 0.55 0 0.60 1.35 0.05 1.70 -0.20 0.10 -0.45 -0.20 -0.45 -0.75z" data-index="19"></path>
  <path d="M674.50 570 c0 -0.65 1.40 -1.25 1.90 -0.80 0.15 0.20 0 0.55 -0.40 0.80 -1 0.65 -1.50 0.60 -1.50 0z" data-index="20"></path>
  <path d="M680.90 567.60 c-0.50 -0.10 -0.90 -0.40 -0.90 -0.65 0 -0.55 0.55 -0.55 1.50 0.05 0.90 0.55 0.55 0.90 -0.60 0.60z" data-index="21"></path>
  <path d="M684.30 565.60 c-0.15 -0.25 -0.95 -0.35 -1.80 -0.20 -2.05 0.30 -2.05 -1.10 0.05 -1.85 2.05 -0.70 2.10 -0.70 1.75 0.20 -0.15 0.45 0.05 0.90 0.45 1.05 0.40 0.20 0.75 0.50 0.75 0.75 0 0.55 -0.85 0.60 -1.20 0.05z" data-index="22"></path>
  <path d="M691.50 560.55 c-1.10 -0.20 -1.50 -0.45 -1.15 -0.70 0.75 -0.45 3.15 0.10 3.15 0.70 0 0.25 -0.05 0.40 -0.10 0.40 -0.10 -0.05 -0.95 -0.20 -1.90 -0.40z" data-index="23"></path>
  <path d="M683 560 c0 -0.25 0.45 -0.50 1 -0.50 0.55 0 1 0.25 1 0.50 0 0.30 -0.45 0.50 -1 0.50 -0.55 0 -1 -0.20 -1 -0.50z" data-index="24"></path>
  <path d="M693.90 558.75 c-0.55 -0.55 0.15 -1.75 1 -1.75 1.10 0 6.20 -2.55 6.90 -3.45 0.55 -0.75 2.20 -0.45 2.20 0.40 0 0.25 -1.70 1.50 -3.75 2.75 -3.05 1.95 -3.90 2.25 -4.70 1.85 -0.65 -0.40 -1 -0.40 -1.15 0 -0.10 0.30 -0.30 0.35 -0.50 0.20z" data-index="25"></path>
  <path d="M521 548 c0 -0.25 0.35 -0.50 0.75 -0.50 0.40 0 0.75 0.25 0.75 0.50 0 0.30 -0.35 0.50 -0.75 0.50 -0.40 0 -0.75 -0.20 -0.75 -0.50z" data-index="26" style="opacity: 1;"></path>
  <path d="M716.50 546.50 c0 -0.25 -0.35 -0.50 -0.80 -0.50 -0.40 0 -0.60 -0.20 -0.45 -0.50 0.15 -0.25 0.70 -0.50 1.25 -0.50 0.50 0 1.55 -0.60 2.35 -1.35 1.30 -1.25 3.20 -1.65 3.15 -0.75 -0.05 0.60 -5.50 4.20 -5.50 3.60z" data-index="27"></path>
  <path d="M512 544.75 c-0.80 -0.95 -0.45 -1.40 0.90 -1.15 0.90 0.15 0.95 0.25 0.40 1.05 -0.60 0.75 -0.75 0.80 -1.30 0.10z" data-index="28"></path>
  <path d="M721.50 540 c1 -0.65 2.15 -0.65 1.75 0 -0.15 0.30 -0.80 0.50 -1.40 0.50 -0.90 0 -0.95 -0.10 -0.35 -0.50z" data-index="29"></path>
  <path d="M507.50 538.25 c0.35 -0.40 0.80 -0.75 1 -0.75 0.20 0 0.50 0.35 0.70 0.75 0.20 0.55 -0.10 0.75 -1.05 0.75 -1.05 0 -1.20 -0.10 -0.65 -0.75z" data-index="30"></path>
  <path d="M704.15 538.65 c-0.90 -0.35 -0.80 -1.15 0.10 -1.15 0.40 0 0.75 0.35 0.75 0.75 0 0.40 -0.05 0.75 -0.10 0.70 -0.10 0 -0.45 -0.15 -0.75 -0.30z" data-index="31"></path>
  <path d="M725.60 538 c0.35 -0.55 0.90 -1 1.25 -1 1.10 0 0.70 0.80 -0.60 1.40 -1.15 0.55 -1.20 0.50 -0.65 -0.40z" data-index="32"></path>
  <path d="M496.05 535.30 c-0.40 -0.50 -0.45 -1.05 -0.20 -1.55 0.40 -0.70 0.55 -0.75 1.10 -0.05 0.40 0.50 0.45 1.05 0.20 1.55 -0.40 0.70 -0.55 0.75 -1.10 0.05z" data-index="33"></path>
  <path d="M734.85 534.85 c-0.40 -1.10 0.95 -2.50 2.10 -2.10 1.45 0.45 1.30 1.10 -0.40 1.95 -1.15 0.60 -1.50 0.65 -1.70 0.15z" data-index="34"></path>
  <path d="M734 531.25 c0 -0.45 0.30 -0.60 0.75 -0.45 0.40 0.20 0.75 0.50 0.75 0.75 0 0.25 -0.35 0.45 -0.75 0.45 -0.40 0 -0.75 -0.35 -0.75 -0.75z" data-index="35"></path>
  <path d="M737.35 530.60 c-0.55 -0.80 0.60 -1.75 2.10 -1.75 1.15 0 1.55 -0.25 1.55 -0.95 0 -0.50 0.35 -0.90 0.75 -0.90 0.40 0 0.75 -0.20 0.75 -0.50 0 -0.25 0.25 -0.50 0.50 -0.50 0.30 0 0.45 0.15 0.45 0.40 -0.25 1.35 0.10 1.65 1.55 1.35 1.75 -0.40 1.95 0.20 0.45 1.55 -0.80 0.70 -1.15 0.75 -1.30 0.35 -0.30 -0.85 -2.65 -0.80 -3.60 0.05 -1.05 0.90 -2.90 1.45 -3.20 0.90z" data-index="36"></path>
  <path d="M747.30 527.25 c-0.15 -0.45 0 -0.75 0.45 -0.75 0.80 0 1 0.80 0.30 1.20 -0.25 0.15 -0.55 -0.05 -0.75 -0.45z" data-index="37"></path>
  <path d="M731.50 526.80 c0 -0.50 0.45 -0.80 1.05 -0.80 1.20 0 1.05 1.15 -0.20 1.40 -0.50 0.10 -0.85 -0.15 -0.85 -0.60z" data-index="38"></path>
  <path d="M744 525.55 c0 -0.30 0.45 -0.80 1 -1.20 0.55 -0.40 0.85 -0.80 0.75 -0.95 -0.15 -0.15 0.25 -0.15 0.90 -0.05 1.10 0.20 1.15 0.35 0.65 1.45 -0.40 0.85 -0.95 1.20 -1.90 1.20 -0.80 0 -1.40 -0.20 -1.40 -0.45z" data-index="39"></path>
  <path d="M481.85 524.65 c-0.95 -0.50 -1.30 -0.90 -0.95 -1.25 0.55 -0.55 3.60 0.80 3.60 1.60 0 0.70 -0.95 0.55 -2.65 -0.35z" data-index="40"></path>
  <path d="M754.60 522.50 c-0.35 -0.55 -0.95 -1 -1.35 -1 -1.40 0 -0.75 -1.35 1.15 -2.40 1.05 -0.60 1.10 -0.55 0.80 0.65 -0.25 1.10 -0.15 1.25 1.05 1.25 1.50 0 1.50 0.80 -0.05 1.80 -0.85 0.60 -1.05 0.55 -1.60 -0.30z" data-index="41"></path>
  <path d="M599.85 522.45 c0.40 -0.40 0.80 -0.40 1.50 0 0.80 0.45 0.70 0.50 -0.55 0.55 -1.10 0 -1.35 -0.15 -0.95 -0.55z" data-index="42"></path>
  <path d="M750.05 522.10 c-0.30 -0.55 -0.30 -1.20 0 -1.65 0.35 -0.60 0.45 -0.55 0.45 0.10 0 0.45 0.35 1 0.80 1.15 0.40 0.15 0.60 0.50 0.45 0.80 -0.45 0.75 -1.15 0.60 -1.70 -0.40z" data-index="43"></path>
  <path d="M478 521.80 c0 -0.15 0.50 -0.80 1.15 -1.50 0.80 -0.85 1.35 -1.10 1.85 -0.80 0.55 0.35 0.40 0.55 -0.65 1.05 -0.75 0.35 -1.35 0.80 -1.35 1.05 0 0.20 -0.20 0.40 -0.50 0.40 -0.25 0 -0.50 -0.10 -0.50 -0.20z" data-index="44"></path>
  <path d="M759.80 519.75 c-0.15 -0.45 0 -0.75 0.45 -0.75 0.80 0 1 0.80 0.30 1.20 -0.25 0.15 -0.55 -0.05 -0.75 -0.45z" data-index="45"></path>
  <path d="M756 518.70 c0 -0.40 1.60 -1.95 2.10 -2 0.20 -0.05 0.65 -0.10 0.95 -0.15 0.40 -0.05 0.40 -0.25 0 -0.75 -0.75 -0.90 0.25 -1.70 1.05 -0.90 0.40 0.40 0.85 0.40 1.50 0.05 1.10 -0.60 1.20 -1.95 0.10 -1.95 -1.05 0 -0.70 -1.60 0.40 -1.80 0.80 -0.10 2.90 2.10 2.90 3.05 0 0.20 -0.50 0.75 -1.10 1.30 l-1.15 0.95 1.40 -0.30 c1.50 -0.35 1.80 0.30 0.60 1.30 -0.60 0.50 -0.95 0.50 -1.35 0.10 -0.75 -0.75 -4.40 -0.80 -4.40 -0.05 0 0.25 -0.25 0.35 -0.60 0.15 -0.40 -0.25 -0.45 -0.10 -0.25 0.45 0.25 0.65 0.05 0.85 -0.90 0.85 -0.70 0 -1.25 -0.15 -1.25 -0.30z" data-index="46"></path>
  <path d="M575.50 516.75 c0 -0.80 0.45 -0.95 1.70 -0.45 1.25 0.45 0.95 1.20 -0.45 1.20 -0.80 0 -1.25 -0.30 -1.25 -0.75z" data-index="47"></path>
  <path d="M467.75 515.50 c-1.25 -1.35 -0.60 -1.85 0.70 -0.55 0.55 0.55 0.85 1.15 0.60 1.25 -0.25 0.15 -0.80 -0.15 -1.30 -0.70z" data-index="48"></path>
  <path d="M570.10 514.40 c-1.10 -1.10 -0.60 -1.45 0.90 -0.65 0.85 0.45 1.50 0.90 1.50 1 0 0.50 -1.80 0.25 -2.40 -0.35z" data-index="49"></path>
  <path d="M767.15 512.65 c-0.90 -0.35 -0.80 -1.15 0.10 -1.15 0.40 0 0.75 0.35 0.75 0.75 0 0.40 -0.05 0.75 -0.10 0.70 -0.10 0 -0.45 -0.15 -0.75 -0.30z" data-index="50"></path>
  <path d="M677 509.95 c0 -0.55 1.35 -0.60 1.70 -0.05 0.10 0.20 -0.20 0.45 -0.75 0.45 -0.50 0.05 -0.95 -0.10 -0.95 -0.40z" data-index="51"></path>
  <path d="M558.95 508 c-1.55 -1.30 -0.75 -1.30 0.90 0 0.70 0.55 1.05 1 0.75 1 -0.25 0 -1 -0.45 -1.65 -1z" data-index="52"></path>
  <path d="M723.80 504.75 c0.20 -0.40 0.50 -0.75 0.75 -0.75 0.25 0 0.45 0.35 0.45 0.75 0 0.40 -0.35 0.75 -0.75 0.75 -0.45 0 -0.60 -0.30 -0.45 -0.75z" data-index="53"></path>
  <path d="M753 427.55 c0 -50.35 0.15 -76.05 0.50 -76.05 0.30 0 0.50 4.45 0.50 12.40 0 6.80 0 40.90 0.05 75.85 0.05 45.60 -0.10 63.50 -0.50 63.65 -0.40 0.15 -0.55 -21 -0.55 -75.85z" data-index="54"></path>
  <path d="M757 503.40 c-0.30 -2.05 -0.15 -151.55 0.15 -151.75 0.25 -0.15 0.50 -0.15 0.65 0 0.15 0.10 0.25 5.70 0.25 12.40 -0.05 6.70 -0.05 40.85 -0.05 75.85 0 42.05 -0.15 63.60 -0.50 63.60 -0.25 0 -0.50 -0.05 -0.50 -0.10z" data-index="55"></path>
  <path d="M549.30 501.20 c-0.20 -0.55 -0.05 -0.70 0.55 -0.60 0.45 0.10 0.90 0.45 1.05 0.80 0.30 0.90 -1.25 0.75 -1.60 -0.20z" data-index="56"></path>
  <path d="M547.25 499.45 c-0.20 -0.30 -0.25 -0.65 -0.10 -0.80 0.35 -0.35 1.35 0.30 1.35 0.90 0 0.60 -0.85 0.60 -1.25 -0.10z" data-index="57"></path>
  <path d="M715.50 497.60 c0 -0.50 1.05 -1.60 1.55 -1.60 0.20 0 0.25 0.45 0.10 1 -0.25 0.95 -1.65 1.45 -1.65 0.60z" data-index="58"></path>
  <path d="M534.95 486.40 c-0.60 -1.15 -0.60 -1.15 0.50 -0.20 1.15 1.05 1.30 1.30 0.55 1.30 -0.25 0 -0.75 -0.50 -1.05 -1.10z" data-index="59"></path>
  <path d="M699.70 481.20 c0.15 -0.45 0.30 -0.90 0.30 -1.05 0 -0.15 0.35 0 0.75 0.35 0.65 0.55 0.65 0.75 0.15 1.05 -1.05 0.65 -1.55 0.50 -1.20 -0.35z" data-index="60"></path>
  <path d="M769 480 c0 -0.55 -0.35 -1 -0.75 -1 -1.20 0 -1.05 -5.85 0.15 -6.15 0.80 -0.20 0.80 -0.25 0 -0.30 -1.10 -0.05 -1.20 -1.55 -0.15 -1.55 0.40 0 0.75 0.30 0.75 0.65 0 0.30 0.10 2.55 0.20 5 0.15 2.40 0.15 4.35 0 4.35 -0.10 0 -0.20 -0.45 -0.20 -1z" data-index="61"></path>
  <path d="M653 475 c0 -0.25 0.45 -0.50 1.05 -0.50 0.55 0 0.85 0.25 0.70 0.50 -0.15 0.30 -0.65 0.50 -1.05 0.50 -0.40 0 -0.70 -0.20 -0.70 -0.50z" data-index="62"></path>
  <path d="M767.50 468.75 c0 -1.30 0.20 -1.75 0.90 -1.80 0.70 0 0.70 -0.10 -0.15 -0.45 l-1 -0.45 1 -0.05 1 -0.05 -1 -0.45 c-0.95 -0.40 -0.95 -0.45 0.05 -0.45 1 -0.05 1.10 0.20 1 2.70 -0.05 2.25 -0.20 2.75 -0.90 2.75 -0.70 0 -0.90 -0.40 -0.90 -1.75z" data-index="63"></path>
  <path d="M566.50 466.75 c0 -0.40 0.25 -0.75 0.50 -0.75 0.30 0 0.50 0.35 0.50 0.75 0 0.40 -0.20 0.75 -0.50 0.75 -0.25 0 -0.50 -0.35 -0.50 -0.75z" data-index="64"></path>
  <path d="M661.90 466.90 c0.45 -0.45 0.75 -0.45 1.20 0 0.45 0.45 0.35 0.60 -0.60 0.60 -0.95 0 -1.05 -0.15 -0.60 -0.60z" data-index="65"></path>
  <path d="M767.50 463.75 c0 -0.40 0.30 -0.75 0.70 -0.75 0.40 0 0.80 0.35 1 0.75 0.20 0.50 -0.05 0.75 -0.70 0.75 -0.55 0 -1 -0.35 -1 -0.75z" data-index="66"></path>
  <path d="M562.80 462.40 c-1.05 -1.50 -1 -2.05 0.15 -1.30 0.55 0.30 0.95 1 0.90 1.50 -0.10 1.15 -0.15 1.15 -1.05 -0.20z" data-index="67"></path>
  <path d="M767.50 458.75 c0 -1.20 0.25 -1.75 0.75 -1.75 0.40 0 0.75 -0.20 0.75 -0.50 0 -0.25 -0.35 -0.50 -0.75 -0.50 -0.40 0 -0.75 -0.20 -0.75 -0.50 0 -0.25 0.45 -0.50 1 -0.50 0.90 0 0.95 0.30 0.85 2.75 -0.10 2.25 -0.25 2.75 -0.95 2.75 -0.70 0 -0.90 -0.40 -0.90 -1.75z" data-index="68"></path>
  <path d="M670.50 457.95 c0 -0.40 0.35 -1.15 0.75 -1.65 0.75 -0.95 0.75 -0.95 0.75 0.05 0 0.55 -0.35 1.30 -0.75 1.65 -0.60 0.50 -0.75 0.50 -0.75 -0.05z" data-index="69"></path>
  <path d="M711.85 455.65 c-0.15 -0.25 -0.10 -0.75 0.10 -1.10 0.35 -0.50 0.50 -0.50 0.80 -0.05 0.20 0.30 0.15 0.80 -0.15 1.10 -0.25 0.25 -0.60 0.30 -0.75 0.05z" data-index="70"></path>
  <path d="M767.50 451.30 c0 -2.60 0.15 -3.30 0.75 -3.30 0.60 0 0.75 0.65 0.75 2.75 0 1.50 0 2.90 0.05 3.15 0 0.20 -0.35 0.40 -0.75 0.50 -0.65 0.15 -0.80 -0.40 -0.80 -3.10z" data-index="71"></path>
  <path d="M672.85 452.20 c-0.30 -0.50 0.45 -2.10 0.80 -1.70 0.15 0.15 0.05 0.70 -0.15 1.20 -0.15 0.55 -0.45 0.75 -0.65 0.50z" data-index="72"></path>
  <path d="M716 440.60 c0 -0.25 0.35 -0.85 0.75 -1.40 0.70 -0.90 0.70 -0.90 0.75 0.45 0 0.85 -0.25 1.35 -0.75 1.35 -0.40 0 -0.75 -0.20 -0.75 -0.40z" data-index="73"></path>
  <path d="M548.30 432.60 c-0.15 -0.30 -0.05 -0.70 0.25 -0.85 0.75 -0.50 1.25 0.15 0.60 0.80 -0.35 0.35 -0.65 0.35 -0.85 0.05z" data-index="74"></path>
  <path d="M511.50 402.30 c0 -0.45 0.35 -0.80 0.80 -0.80 0.45 0 0.70 0.25 0.60 0.60 -0.30 0.90 -1.40 1.05 -1.40 0.20z" data-index="75"></path>
  <path d="M716.35 395.05 c-0.20 -0.95 -0.25 -1.80 -0.10 -1.95 0.50 -0.55 0.80 0.35 0.65 2 l-0.15 1.65 -0.40 -1.70z" data-index="76"></path>
  <path d="M513.75 392.85 c-0.20 -0.50 -0.25 -1.05 -0.05 -1.20 0.50 -0.50 0.90 0.20 0.65 1.20 -0.20 0.85 -0.20 0.85 -0.60 0z" data-index="77"></path>
  <path d="M769 392 c0 -0.25 -0.35 -0.50 -0.75 -0.50 -0.60 0 -0.75 -0.75 -0.75 -3.75 0 -2.90 0.15 -3.75 0.70 -3.75 0.40 0 0.80 -0.50 0.90 -1.10 0.10 -0.65 0.20 1.25 0.15 4.20 0 3 -0.05 5.40 -0.10 5.40 -0.10 0 -0.15 -0.20 -0.15 -0.50z" data-index="78"></path>
  <path d="M715.50 388.30 c0 -0.70 0.25 -1.30 0.50 -1.30 0.30 0 0.50 0.45 0.50 0.95 0 0.55 -0.20 1.15 -0.50 1.30 -0.30 0.20 -0.50 -0.25 -0.50 -0.95z" data-index="79"></path>
  <path d="M675.05 385.60 c-0.65 -1.25 -0.70 -1.60 -0.10 -1.60 0.45 0 1.15 2.05 0.80 2.40 -0.10 0.10 -0.40 -0.25 -0.70 -0.80z" data-index="80"></path>
  <path d="M768.25 379.50 c-0.80 -0.35 -0.85 -0.45 -0.15 -0.45 0.45 -0.05 0.95 -0.45 1.05 -0.90 0.15 -0.55 0.25 -0.35 0.30 0.50 0 0.75 0 1.35 -0.05 1.30 -0.10 0 -0.60 -0.20 -1.15 -0.45z" data-index="81"></path>
  <path d="M561.50 375.20 c0 -0.85 3.35 -4.50 3.80 -4.10 0.20 0.25 -0.60 1.35 -1.70 2.50 -1.15 1.15 -2.10 1.85 -2.10 1.60z" data-index="82"></path>
  <path d="M667.15 374.25 c-0.45 -1.25 0.20 -1.45 0.85 -0.30 0.35 0.75 0.35 1.05 0 1.05 -0.30 0 -0.65 -0.35 -0.85 -0.75z" data-index="83"></path>
  <path d="M707.10 369.15 c-0.40 -0.70 -0.45 -1.20 -0.10 -1.40 0.60 -0.35 1.20 0.90 0.90 1.85 -0.15 0.40 -0.45 0.25 -0.80 -0.45z" data-index="84"></path>
  <path d="M658.60 365.90 c-0.35 -0.35 -0.60 -0.95 -0.60 -1.35 0 -0.55 0.20 -0.50 1 0.20 1.05 0.95 1.30 1.75 0.60 1.75 -0.20 0 -0.65 -0.25 -1 -0.60z" data-index="85"></path>
  <path d="M571 365 c0 -0.60 3.10 -2.60 3.45 -2.25 0.10 0.15 -0.30 0.80 -0.95 1.50 -1.20 1.25 -2.50 1.65 -2.50 0.75z" data-index="86"></path>
  <path d="M650.25 358.95 c-0.55 -0.85 0 -1 1.05 -0.20 0.85 0.65 0.85 0.70 0.10 0.75 -0.45 0 -1 -0.25 -1.15 -0.55z" data-index="87"></path>
  <path d="M700 356.75 c0 -0.40 -0.40 -0.95 -0.95 -1.20 -1.20 -0.65 -1.75 -2.55 -0.75 -2.55 0.40 0 0.85 0.40 1 0.90 0.15 0.45 0.60 1.45 1 2.25 0.45 0.80 0.55 1.35 0.25 1.35 -0.30 0 -0.55 -0.35 -0.55 -0.75z" data-index="88"></path>
  <path d="M694.50 348.95 c-0.30 -0.55 -0.45 -1.25 -0.35 -1.60 0.10 -0.35 0.55 0.15 1.05 1.05 0.45 0.85 0.60 1.60 0.35 1.60 -0.30 0 -0.75 -0.45 -1.05 -1.05z" data-index="89"></path>
  <path d="M543.75 340.50 c-0.35 -0.60 0.10 -1.50 0.80 -1.50 0.60 0 0.60 1.35 0 1.75 -0.25 0.15 -0.60 0.05 -0.80 -0.25z" data-index="90"></path>
  <path d="M683.60 339.35 c-0.65 -0.75 -0.95 -2.30 -0.50 -2.30 1 -0.05 1.90 0.65 1.90 1.45 0 1.20 -0.75 1.65 -1.40 0.85z" data-index="91"></path>
  <path d="M468 332 c0 -0.60 2 -1.70 2.35 -1.30 0.45 0.40 -0.85 1.80 -1.65 1.80 -0.40 0 -0.70 -0.20 -0.70 -0.50z" data-index="92"></path>
  <path d="M673 331 c0 -0.25 0.30 -0.50 0.70 -0.50 0.40 0 0.90 0.25 1.05 0.50 0.15 0.30 -0.15 0.50 -0.70 0.50 -0.60 0 -1.05 -0.20 -1.05 -0.50z" data-index="93"></path>
  <path d="M669.25 328.50 c-0.15 -0.25 0.15 -0.50 0.70 -0.50 0.60 0 1.05 0.25 1.05 0.50 0 0.30 -0.30 0.50 -0.70 0.50 -0.40 0 -0.90 -0.20 -1.05 -0.50z" data-index="94"></path>
  <path d="M476 326.50 c0 -0.25 0.45 -0.50 1.05 -0.50 0.55 0 0.85 0.25 0.70 0.50 -0.15 0.30 -0.65 0.50 -1.05 0.50 -0.40 0 -0.70 -0.20 -0.70 -0.50z" data-index="95"></path>
  <path d="M574 323.80 c0 -0.45 0.35 -0.80 0.80 -0.80 0.45 0 0.70 0.25 0.60 0.60 -0.30 0.90 -1.40 1.05 -1.40 0.20z" data-index="96"></path>
  <path d="M488.30 319.05 c-0.15 -0.25 0 -0.70 0.35 -0.95 0.50 -0.40 0.65 -0.30 0.70 0.45 0.10 0.95 -0.55 1.30 -1.05 0.50z" data-index="97"></path>
  <path d="M492 316.75 c0.35 -0.40 0.80 -0.75 1.05 -0.75 0.25 0 0.30 0.35 0.15 0.75 -0.20 0.40 -0.65 0.75 -1.05 0.75 -0.65 0 -0.65 -0.15 -0.15 -0.75z" data-index="98"></path>
  <path d="M501.75 311 c0.15 -0.25 0.75 -0.50 1.30 -0.50 0.55 0 0.85 0.25 0.70 0.50 -0.15 0.30 -0.75 0.50 -1.30 0.50 -0.55 0 -0.85 -0.20 -0.70 -0.50z" data-index="99"></path>
  <path d="M505 309.60 c0 -0.25 0.45 -0.60 1.05 -0.75 0.65 -0.15 0.95 -0.05 0.80 0.30 -0.25 0.75 -1.85 1.10 -1.85 0.45z" data-index="100"></path>
  <path d="M508.50 307.55 c0 -0.20 0.60 -0.65 1.30 -1 1 -0.45 1.25 -0.45 1.10 0 -0.25 0.70 -2.40 1.60 -2.40 1z" data-index="101"></path>
  <path d="M511.80 304.30 c0.25 -0.65 2.20 -1.50 2.20 -0.95 0 0.35 -1.65 1.60 -2.10 1.65 -0.20 0 -0.25 -0.30 -0.10 -0.70z" data-index="102"></path>
  <path d="M519.25 299.50 c0.50 -0.55 1.05 -0.85 1.25 -0.75 0.25 0.15 0.50 0.05 0.60 -0.25 0.10 -0.30 0.40 -0.30 0.90 0 0.65 0.45 0.65 0.55 0 0.95 -0.45 0.30 -0.95 0.30 -1.30 0 -0.40 -0.30 -0.70 -0.25 -0.90 0.30 -0.15 0.40 -0.55 0.75 -0.85 0.75 -0.35 0 -0.25 -0.40 0.30 -1z" data-index="103"></path>
  <path d="M528.15 294.65 c0.45 -0.45 0.95 -0.70 1.15 -0.55 0.50 0.50 -0.30 1.40 -1.20 1.40 -0.75 0 -0.75 -0.05 0.05 -0.85z" data-index="104"></path>
  <path d="M534 295 c0 -0.25 0.35 -0.50 0.75 -0.50 0.40 0 0.75 0.25 0.75 0.50 0 0.30 -0.35 0.50 -0.75 0.50 -0.40 0 -0.75 -0.20 -0.75 -0.50z" data-index="105"></path>
  <path d="M531.10 293.40 c0.35 -1 2.40 -1.15 2.40 -0.20 0 0.55 -0.45 0.80 -1.30 0.80 -0.80 0 -1.20 -0.25 -1.10 -0.60z" data-index="106"></path>
  <path d="M562.60 274.95 c0.10 -0.30 0.40 -0.50 0.65 -0.50 0.25 0 0.55 0.20 0.65 0.50 0.10 0.30 -0.20 0.55 -0.65 0.55 -0.45 0 -0.75 -0.25 -0.65 -0.55z" data-index="107"></path>
  <path d="M574.75 265.70 c1.45 -1.15 2.75 -1.80 2.75 -1.40 0 0.60 -2.15 2.20 -2.95 2.20 -0.65 -0.05 -0.60 -0.20 0.20 -0.80z" data-index="108"></path>
  <path d="M591.25 255.75 c1.55 -1.30 2.25 -1.55 2.25 -0.85 0 0.25 -0.85 0.80 -1.85 1.25 l-1.90 0.85 1.50 -1.25z" data-index="109"></path>
  <path d="M601.90 254.90 c0.45 -0.45 0.75 -0.45 1.20 0 0.45 0.45 0.35 0.60 -0.60 0.60 -0.95 0 -1.05 -0.15 -0.60 -0.60z" data-index="110"></path>
  <path d="M613.70 244.10 c0.25 -0.45 2.65 -0.40 3.15 0.05 0.15 0.20 -0.50 0.35 -1.55 0.35 -1 0 -1.75 -0.20 -1.60 -0.40z" data-index="111"></path>
 </g>
</svg>