<svg xmlns:xlink="http://www.w3.org/1999/xlink" xmlns="http://www.w3.org/2000/svg" xml:space="preserve" viewBox="265.824 246.272 612.768 359.424" width="612.768" y="0px" x="0px" id="Layer_1" version="1.1" style="max-height: 500px;background-color:transparent;" height="359.424">

<path d="M417.999634,529.971313 
	C391.834442,514.001770 366.050415,498.101471 340.114014,482.453705 
	C334.536499,479.088715 331.991455,474.944580 332.025543,468.293945 
	C332.234802,427.481354 332.200714,386.667084 332.088409,345.853790 
	C332.073395,340.403900 334.189392,336.627686 338.682861,333.883667 
	C373.198792,312.805664 407.714233,291.726807 442.213409,270.621338 
	C447.630676,267.307251 452.630371,267.668762 458.067017,271.029358 
	C491.763214,291.858215 525.538452,312.560120 559.381714,333.149170 
	C564.780396,336.433563 567.238159,340.585602 567.214478,346.987213 
	C567.065002,387.300385 567.000061,427.615662 567.307312,467.927185 
	C567.361938,475.100830 564.512512,479.357666 558.741394,482.867859 
	C531.863037,499.216034 505.089844,515.737061 478.282196,532.201355 
	C471.333008,536.469360 464.335602,540.662964 457.471710,545.064392 
	C452.413452,548.307861 447.593506,548.278442 442.542297,545.088562 
	C434.520721,540.022888 426.403229,535.109009 417.999634,529.971313 
M379.804108,438.652374 
	C400.689209,481.321991 450.791443,495.682617 491.169830,470.483673 
	C493.782654,468.853088 495.440277,468.899445 497.565735,471.168823 
	C504.281494,478.339294 511.021027,485.503998 518.105530,492.301880 
	C520.041687,494.159760 523.470337,496.045563 525.783386,495.613403 
	C531.430725,494.558319 535.528748,490.468689 537.721863,485.184845 
	C539.707581,480.400696 536.541077,477.011719 533.379883,473.850220 
	C526.210144,466.679626 519.084534,459.464905 511.809692,452.135864 
	C512.636292,450.564941 513.326721,449.067749 514.176025,447.666870 
	C524.257935,431.038330 528.455200,413.212616 526.169983,393.733307 
	C519.930542,340.547974 465.482147,308.468933 414.738068,332.822205 
	C376.658661,351.097382 361.114197,398.593536 379.804108,438.652374 
z" stroke="none" opacity="1.000000" fill="#149B83" data-index="1" style="visibility: visible; opacity: 1;"></path>
<path d="M710.904114,414.000000 
	C710.904114,385.201355 710.904114,356.902679 710.904114,328.768036 
	C711.377808,328.402252 711.634827,328.030334 711.887451,328.033325 
	C733.355835,328.289673 754.942932,327.248077 776.264832,329.160736 
	C810.603149,332.240997 836.643982,360.065430 839.938171,394.502411 
	C841.690613,412.821991 839.628235,430.465607 830.577026,446.756683 
	C819.228882,467.182129 801.570984,479.967529 778.703979,482.500366 
	C756.490173,484.960846 733.916931,484.176605 710.904114,484.834290 
	C710.904114,460.696228 710.904114,437.598114 710.904114,414.000000 
M740.946960,407.500000 
	C740.946960,423.587006 740.946960,439.674011 740.946960,455.737518 
	C751.378296,455.737518 761.164307,455.918732 770.936584,455.631104 
	C774.014160,455.540497 777.153809,454.461945 780.096863,453.378448 
	C811.913391,441.665253 816.824341,399.347260 801.646973,376.992035 
	C790.008179,359.848846 764.241577,351.664368 740.946716,357.701324 
	C740.946716,373.913330 740.946716,390.206665 740.946960,407.500000 
z" stroke="none" opacity="1.000000" fill="#169A82" data-index="2" style="visibility: visible; opacity: 1;"></path>
<path d="M601.568420,403.520691 
	C615.974304,379.506134 630.231384,355.826965 644.311218,332.042877 
	C646.140198,328.953278 648.093994,327.682800 651.771729,327.787933 
	C661.724426,328.072357 671.690674,327.885376 682.230042,327.885376 
	C682.230042,362.035950 682.230042,395.779449 682.230042,429.928497 
	C687.413879,429.928497 692.025146,429.928497 697.111084,429.928497 
	C697.111084,439.170990 697.111084,448.014069 697.111084,457.363525 
	C692.299988,457.363525 687.534973,457.363525 682.282227,457.363525 
	C682.282227,466.433929 682.282227,475.022614 682.282227,483.932434 
	C672.542908,483.932434 663.292053,483.932434 653.414734,483.932434 
	C653.414734,475.277588 653.414734,466.554169 653.414734,457.448608 
	C630.384460,457.448608 607.972351,457.448608 584.960754,457.448608 
	C584.960754,448.645874 584.715393,440.212708 585.125122,431.811462 
	C585.234131,429.575867 587.291443,427.402222 588.559265,425.262329 
	C592.802063,418.100861 597.092468,410.967590 601.568420,403.520691 
M630.078125,404.588593 
	C625.173035,412.829865 620.267883,421.071167 615.100769,429.752716 
	C628.156677,429.752716 640.479919,429.752716 653.058044,429.752716 
	C653.058044,419.144836 653.058044,408.858459 653.058044,398.572113 
	C653.058044,388.376282 653.058044,378.180450 653.058044,366.569366 
	C645.011108,379.889862 637.737610,391.930115 630.078125,404.588593 
z" stroke="none" opacity="1.000000" fill="#149B83" data-index="3" style="visibility: visible; opacity: 1;"></path>
<path d="M379.626251,438.321106 
	C361.114197,398.593536 376.658661,351.097382 414.738068,332.822205 
	C465.482147,308.468933 519.930542,340.547974 526.169983,393.733307 
	C528.455200,413.212616 524.257935,431.038330 514.176025,447.666870 
	C513.326721,449.067749 512.636292,450.564941 511.809692,452.135864 
	C519.084534,459.464905 526.210144,466.679626 533.379883,473.850220 
	C536.541077,477.011719 539.707581,480.400696 537.721863,485.184845 
	C535.528748,490.468689 531.430725,494.558319 525.783386,495.613403 
	C523.470337,496.045563 520.041687,494.159760 518.105530,492.301880 
	C511.021027,485.503998 504.281494,478.339294 497.565735,471.168823 
	C495.440277,468.899445 493.782654,468.853088 491.169830,470.483673 
	C450.791443,495.682617 400.689209,481.321991 379.626251,438.321106 
M480.482483,358.956055 
	C458.760712,344.394470 435.066406,344.861084 415.525940,361.411926 
	C398.606812,375.742462 393.930084,394.821625 398.073853,416.075256 
	C405.151917,452.378998 447.733032,470.045074 478.611572,449.712402 
	C508.991425,429.708130 510.269867,382.168213 480.482483,358.956055 
z" stroke="none" opacity="1.000000" fill="#242B33" data-index="4" style="visibility: visible; opacity: 1;"></path>

<path d="M630.271118,404.279480 
	C637.737610,391.930115 645.011108,379.889862 653.058044,366.569366 
	C653.058044,378.180450 653.058044,388.376282 653.058044,398.572113 
	C653.058044,408.858459 653.058044,419.144836 653.058044,429.752716 
	C640.479919,429.752716 628.156677,429.752716 615.100769,429.752716 
	C620.267883,421.071167 625.173035,412.829865 630.271118,404.279480 
z" stroke="none" opacity="1.000000" fill="#FAFDFC" data-index="6" style="visibility: hidden; opacity: 1; fill: rgb(121, 40, 202); stroke-width: 2px; stroke: rgb(13, 153, 255);"></path>
<path d="M480.761230,359.183319 
	C510.269867,382.168213 508.991425,429.708130 478.611572,449.712402 
	C447.733032,470.045074 405.151917,452.378998 398.073853,416.075256 
	C393.930084,394.821625 398.606812,375.742462 415.525940,361.411926 
	C435.066406,344.861084 458.760712,344.394470 480.761230,359.183319 
z" stroke="none" opacity="1.000000" fill="#129B83" data-index="7" style="visibility: visible; opacity: 1;"></path>
</svg>